<?xml version="1.0" standalone="no"?>
<!DOCTYPE svg PUBLIC "-//W3C//DTD SVG 20010904//EN"
 "http://www.w3.org/TR/2001/REC-SVG-20010904/DTD/svg10.dtd">
<svg version="1.0" xmlns="http://www.w3.org/2000/svg"
 width="512.000000pt" height="512.000000pt" viewBox="0 0 512.000000 512.000000"
 preserveAspectRatio="xMidYMid meet">
<metadata>
Created by potrace 1.11, written by Peter Selinger 2001-2013
</metadata>
<g transform="translate(0.000000,512.000000) scale(0.100000,-0.100000)"
fill="#000000" stroke="none">
<path d="M3185 4621 c-3 -5 -19 -8 -35 -6 -17 2 -30 -1 -30 -7 0 -6 -7 -5 -17
3 -14 12 -16 12 -11 -2 7 -19 -20 -22 -41 -5 -11 8 -13 8 -7 -1 7 -13 -1 -15
-51 -16 -12 0 -20 -4 -17 -8 3 -5 2 -9 -3 -10 -28 -2 -47 -9 -53 -19 -4 -6
-11 -10 -16 -9 -19 3 -34 -1 -34 -12 0 -5 5 -7 12 -3 7 4 8 3 4 -4 -5 -9 -13
-9 -29 0 -21 10 -21 10 -7 -7 14 -17 14 -18 -10 -5 -22 12 -23 11 -13 -1 10
-12 8 -15 -10 -16 -12 -1 -35 -17 -52 -36 -16 -18 -24 -26 -17 -17 22 29 13
32 -13 4 -13 -14 -22 -32 -18 -38 4 -6 -1 -5 -11 3 -9 8 -16 10 -15 5 3 -20
-1 -35 -10 -30 -5 3 -12 -1 -15 -10 -3 -8 -10 -13 -15 -9 -5 3 -13 0 -17 -6
-5 -8 -3 -9 6 -4 8 5 11 3 8 -6 -3 -8 -11 -14 -19 -14 -8 -1 -13 -6 -11 -13 2
-11 -10 -16 -30 -13 -4 0 -4 -7 -1 -16 4 -11 3 -14 -5 -9 -8 5 -12 0 -12 -13
0 -11 -10 -28 -23 -38 -22 -17 -27 -24 -27 -39 0 -4 -7 0 -17 7 -15 13 -15 12
-4 -8 11 -22 8 -28 -13 -24 -5 1 -3 -5 4 -14 11 -13 10 -15 -4 -9 -15 6 -22
-10 -17 -38 0 -4 -9 -13 -20 -19 -17 -9 -19 -13 -8 -20 11 -7 10 -9 -3 -9 -11
0 -18 -8 -18 -18 0 -10 -6 -24 -12 -31 -9 -10 -9 -12 -1 -7 8 4 11 -1 8 -16
-3 -13 -10 -25 -15 -26 -7 -3 -6 -10 2 -20 10 -12 10 -14 1 -8 -9 5 -13 -2
-13 -24 0 -22 -4 -29 -12 -24 -10 6 -10 4 0 -8 7 -8 10 -23 6 -31 -5 -14 -8
-14 -26 3 -11 10 -17 23 -13 29 3 6 1 11 -6 11 -7 0 -9 3 -6 7 4 3 -1 15 -10
25 -16 18 -16 19 3 12 19 -7 19 -6 0 8 -10 8 -16 20 -12 26 5 8 1 10 -10 5
-11 -4 -15 -2 -11 4 4 6 0 14 -9 17 -13 5 -14 9 -4 21 9 11 7 16 -9 27 -12 7
-21 19 -21 26 0 7 -7 20 -16 29 -8 9 -13 22 -10 30 4 9 0 13 -11 11 -17 -3
-19 1 -22 38 0 8 -5 12 -11 9 -5 -3 -10 3 -10 15 0 12 -4 18 -10 15 -5 -3 -10
-1 -10 5 0 6 -5 8 -12 4 -10 -6 -10 -4 0 8 11 13 8 19 -15 39 -15 14 -34 36
-42 51 -8 15 -18 25 -23 22 -4 -3 -8 2 -8 11 0 10 -5 13 -12 9 -8 -5 -9 -2 -5
9 3 9 3 16 -1 16 -24 -4 -42 3 -42 16 0 9 -6 12 -17 8 -9 -4 -14 -2 -11 3 4 5
-4 9 -17 9 -13 0 -21 -4 -18 -8 3 -5 -1 -8 -8 -6 -34 4 -49 -2 -49 -21 0 -11
-5 -20 -11 -20 -5 0 -7 5 -3 12 4 7 3 8 -5 4 -6 -4 -10 -15 -9 -24 2 -9 -2
-16 -8 -15 -6 1 -11 -14 -12 -34 -1 -27 5 -40 23 -55 14 -11 25 -25 25 -33 0
-9 13 -13 41 -12 22 1 43 -4 47 -10 4 -6 18 -13 32 -14 18 -3 25 -10 24 -26
-1 -16 4 -20 17 -18 10 2 18 1 18 -3 -3 -20 2 -32 11 -27 6 3 10 -3 10 -14 0
-15 4 -19 17 -14 11 4 14 3 9 -5 -4 -7 -3 -12 2 -12 5 0 14 -12 20 -26 7 -14
16 -23 21 -20 5 3 12 -1 15 -10 3 -8 2 -12 -4 -9 -6 3 -10 1 -10 -4 0 -6 7
-11 15 -11 8 0 15 -4 15 -8 0 -5 10 -19 23 -32 12 -14 21 -28 20 -32 -2 -5 2
-8 8 -8 5 0 7 -4 4 -10 -3 -5 2 -10 12 -10 15 0 16 -2 3 -10 -10 -6 -11 -10
-2 -10 6 0 12 -7 12 -16 0 -8 5 -12 10 -9 6 4 10 -7 10 -24 0 -22 5 -31 16
-31 9 0 14 -6 11 -12 -2 -7 0 -21 5 -32 6 -11 6 -16 1 -13 -5 4 -10 -1 -10 -9
0 -8 6 -13 12 -10 6 2 12 -2 12 -10 0 -8 -3 -12 -5 -9 -3 3 -11 -3 -19 -13 -8
-9 -12 -11 -8 -4 4 9 -5 12 -35 12 -30 0 -39 3 -34 13 5 8 2 8 -9 -2 -9 -7
-17 -9 -17 -3 0 5 -7 13 -16 16 -13 5 -14 4 -6 -7 18 -22 -23 -14 -49 9 -12
10 -20 14 -16 9 3 -6 -3 -11 -14 -11 -10 0 -19 4 -19 8 0 4 5 8 12 8 6 0 8 3
5 6 -4 4 -14 1 -24 -7 -14 -12 -16 -12 -8 0 6 11 3 13 -13 9 -12 -4 -22 -2
-22 2 0 5 -18 8 -39 6 -32 -3 -38 0 -33 13 5 14 4 14 -13 1 -10 -8 -16 -10
-13 -5 4 6 -2 17 -14 24 -11 7 -17 8 -13 2 4 -7 -8 -10 -34 -9 -22 1 -38 5
-35 10 3 4 -2 8 -11 8 -9 0 -13 -4 -10 -10 9 -15 -4 -12 -22 5 -8 8 -19 13
-24 9 -17 -10 -179 -6 -193 5 -9 8 -13 7 -13 -4 0 -8 5 -11 10 -8 6 3 7 1 4
-5 -4 -5 -15 -9 -25 -7 -9 1 -24 -3 -32 -9 -13 -9 -13 -9 -3 5 11 14 8 16 -23
16 -20 0 -30 -4 -22 -8 6 -4 16 -5 22 -2 5 3 6 1 2 -5 -4 -6 -13 -9 -20 -6 -8
3 -17 1 -21 -5 -4 -8 -12 -8 -26 -1 -15 9 -21 7 -25 -5 -4 -10 -19 -15 -45
-15 -30 0 -39 -4 -39 -17 0 -15 -2 -16 -10 -3 -6 10 -10 11 -10 3 0 -7 -10
-13 -22 -13 -19 0 -20 -2 -8 -11 12 -8 9 -10 -14 -6 -22 4 -30 0 -33 -14 -3
-10 -18 -24 -33 -31 -16 -7 -26 -17 -24 -23 3 -5 -2 -1 -12 10 -10 12 -15 14
-12 5 3 -8 -1 -21 -8 -28 -8 -7 -14 -9 -14 -5 0 4 -5 0 -11 -10 -6 -9 -14 -15
-20 -12 -5 4 -9 -1 -9 -10 0 -11 -5 -15 -14 -12 -11 4 -13 1 -9 -10 5 -13 1
-15 -23 -10 -25 5 -27 4 -11 -8 19 -14 6 -32 -13 -20 -6 4 -10 3 -9 -2 3 -19
-2 -34 -10 -29 -5 3 -12 -1 -15 -10 -3 -8 -11 -12 -17 -8 -8 4 -9 3 -5 -4 4
-7 -3 -22 -16 -34 -13 -13 -17 -17 -8 -10 9 6 21 12 26 12 4 0 -2 -7 -14 -16
-12 -8 -20 -20 -17 -25 4 -5 -2 -6 -11 -2 -14 5 -16 3 -11 -11 4 -10 1 -19 -9
-23 -9 -3 -13 -12 -9 -21 4 -11 2 -12 -8 -4 -10 8 -13 6 -14 -10 -1 -12 -6
-24 -11 -27 -5 -3 -13 -16 -16 -29 -7 -20 -10 -21 -24 -10 -12 9 -11 6 2 -10
11 -12 14 -22 8 -22 -6 0 -14 -9 -17 -20 -4 -12 -11 -17 -18 -13 -7 4 -5 -2 3
-12 10 -13 11 -16 2 -11 -9 5 -13 3 -11 -5 1 -8 1 -23 0 -34 -1 -17 -3 -18
-11 -5 -7 11 -10 7 -10 -18 0 -24 -4 -31 -13 -26 -6 4 -9 4 -5 -1 4 -4 3 -14
-3 -21 -7 -8 -7 -14 1 -19 5 -3 10 -12 10 -18 0 -7 -4 -6 -10 3 -11 17 -13 10
-10 -36 1 -18 -3 -35 -9 -39 -7 -4 -9 1 -5 12 5 16 4 16 -6 -1 -10 -14 -10
-20 0 -26 8 -5 9 -10 2 -14 -6 -4 -8 -14 -5 -23 4 -10 2 -14 -5 -9 -6 3 -14 1
-18 -5 -4 -7 -3 -9 3 -6 18 11 22 -32 5 -49 -13 -13 -13 -17 -1 -25 10 -6 10
-9 2 -9 -9 0 -13 -17 -13 -50 0 -33 -4 -50 -12 -50 -8 0 -9 -3 -3 -8 12 -9 13
-32 1 -51 -7 -10 -6 -12 4 -6 8 5 11 3 8 -6 -3 -8 -12 -13 -19 -11 -9 1 -7 -3
4 -12 12 -9 14 -16 8 -21 -6 -3 -11 -11 -11 -16 0 -6 6 -7 13 -3 8 5 8 2 -2
-9 -9 -11 -10 -17 -2 -17 6 0 11 -5 11 -11 0 -5 -4 -8 -9 -4 -5 3 -13 1 -16
-5 -4 -6 -1 -9 7 -8 8 2 14 -8 16 -24 3 -23 0 -27 -15 -22 -15 5 -16 4 -2 -5
11 -7 16 -29 18 -73 1 -35 7 -66 14 -70 9 -6 9 -8 0 -8 -13 0 -13 -63 0 -77 5
-4 5 1 2 12 -5 15 -4 16 3 6 5 -7 8 -27 5 -42 -3 -18 0 -29 8 -29 8 0 7 -5 -2
-17 -12 -14 -12 -16 2 -11 11 4 15 -1 15 -17 0 -13 -3 -22 -7 -19 -4 2 -11 -1
-15 -7 -4 -8 -3 -9 4 -5 17 10 34 -28 19 -44 -10 -10 -8 -12 6 -7 9 4 17 2 17
-3 0 -6 -6 -10 -12 -10 -8 -1 -6 -6 5 -14 12 -9 14 -16 7 -21 -5 -3 -8 -11 -4
-16 3 -5 9 -7 14 -4 5 3 12 0 16 -6 4 -7 3 -9 -4 -5 -6 3 -13 2 -17 -4 -3 -6
1 -13 9 -16 9 -3 16 -10 16 -16 0 -5 -6 -6 -12 -2 -10 6 -10 4 0 -7 6 -7 12
-21 12 -31 0 -10 5 -18 11 -18 8 0 7 -5 -1 -16 -11 -12 -11 -15 0 -12 8 2 14
-7 14 -23 1 -14 7 -33 13 -41 7 -8 14 -27 15 -41 1 -14 6 -23 10 -21 5 3 5 10
2 16 -4 6 -2 8 3 5 6 -4 9 -20 8 -37 -2 -22 2 -30 14 -30 14 0 14 -2 1 -10
-10 -6 -11 -10 -2 -10 6 0 12 -9 12 -20 0 -11 5 -20 11 -20 5 0 7 -4 4 -10 -3
-5 -2 -10 4 -10 5 0 8 -11 7 -25 -2 -13 0 -24 3 -23 21 2 28 -5 26 -26 -2 -17
1 -23 10 -20 8 4 11 -3 9 -21 -1 -15 3 -28 11 -31 7 -3 16 -16 19 -30 4 -13
14 -24 23 -24 13 0 14 -3 5 -12 -7 -7 -12 -17 -12 -23 0 -5 4 -4 9 3 6 10 12
6 25 -14 10 -14 12 -23 5 -19 -8 6 -10 4 -5 -4 5 -7 14 -10 22 -7 8 3 13 2 13
-2 -1 -4 0 -10 1 -14 5 -16 8 -28 9 -44 0 -8 4 -13 9 -11 4 3 16 -5 27 -16 12
-11 14 -17 5 -13 -8 4 -5 -1 7 -12 12 -11 19 -22 16 -26 -4 -3 -1 -6 5 -6 7 0
12 -7 12 -15 0 -8 5 -15 10 -15 6 0 10 -8 10 -17 0 -15 2 -16 10 -3 8 12 10
11 10 -7 0 -13 5 -23 10 -23 15 0 49 -37 42 -46 -4 -4 2 -4 13 0 11 4 16 4 12
0 -9 -9 13 -35 24 -28 5 3 9 -2 9 -10 0 -15 13 -21 35 -16 5 1 7 -1 3 -5 -10
-10 31 -47 44 -39 7 5 9 0 6 -14 -5 -16 -2 -20 14 -17 14 3 18 0 14 -10 -3 -8
-2 -14 2 -14 28 5 52 -3 52 -17 0 -8 4 -13 9 -10 5 3 11 -1 15 -9 3 -8 18 -15
33 -15 22 0 25 -2 13 -10 -14 -9 -7 -14 13 -11 4 1 15 -5 23 -14 9 -8 28 -15
43 -15 16 0 34 -7 41 -15 7 -9 21 -13 31 -10 11 4 19 2 19 -3 0 -11 25 -10 36
1 13 12 24 7 25 -10 0 -17 1 -17 8 0 8 22 21 24 32 6 6 -10 11 -10 23 0 15 13
21 8 17 -13 -2 -10 29 12 41 28 8 12 47 15 54 4 3 -4 11 -8 17 -8 7 0 6 4 -3
10 -12 8 -10 10 10 11 14 1 28 1 33 0 4 0 7 4 7 10 0 8 5 7 15 -1 13 -11 14
-10 9 4 -4 12 -2 15 9 10 8 -3 18 -1 22 5 3 6 12 11 18 11 7 0 6 -4 -3 -10 -9
-6 -10 -10 -3 -10 7 0 16 7 21 17 6 10 16 14 26 10 9 -4 16 -2 16 3 0 5 7 6
17 3 11 -5 14 -3 8 6 -6 10 -3 11 15 1 15 -8 20 -8 16 -1 -4 6 -1 11 7 11 8 0
20 7 27 15 10 12 16 13 28 3 13 -10 14 -10 8 -1 -5 9 -1 13 13 13 10 0 22 6
24 13 4 9 6 9 6 0 1 -7 6 -13 12 -13 5 0 7 4 4 10 -6 10 9 13 85 12 25 0 50 4
57 9 7 7 14 6 18 -1 4 -6 14 -9 22 -5 12 4 13 2 5 -7 -8 -10 -4 -13 16 -14 67
-3 100 -9 96 -16 -4 -7 24 -10 52 -7 3 0 12 -7 18 -17 8 -11 20 -15 30 -11 10
4 23 4 29 0 7 -4 23 -9 37 -11 13 -2 27 -7 30 -10 3 -4 15 -7 28 -6 13 1 26
-5 29 -13 4 -11 8 -10 19 4 13 17 14 17 8 0 -6 -15 -2 -18 17 -15 13 2 23 -2
22 -8 -1 -6 4 -11 12 -11 8 0 12 3 10 7 -2 3 5 6 16 6 10 0 19 -3 19 -7 0 -15
40 -16 49 -2 7 13 9 13 14 -1 4 -10 12 -13 23 -9 14 5 16 3 11 -12 -6 -15 -5
-16 7 -6 8 7 20 10 26 6 5 -3 13 1 16 9 3 9 10 16 16 16 5 0 7 -4 4 -9 -4 -5
4 -7 16 -3 16 4 19 2 13 -8 -6 -9 -4 -11 4 -6 7 5 10 14 8 21 -3 7 2 12 11 12
46 0 63 4 57 13 -3 5 -2 10 4 10 5 0 12 -6 14 -12 4 -8 6 -7 6 3 1 15 34 33
54 30 4 -1 10 6 13 14 5 13 9 13 22 3 13 -11 14 -11 8 0 -5 9 -1 15 13 19 11
3 18 9 15 14 -3 5 2 9 11 9 10 0 13 5 9 13 -5 7 0 6 11 -3 10 -8 16 -10 12 -3
-4 7 1 14 13 18 11 4 18 11 15 16 -4 5 4 9 15 9 14 0 24 8 27 20 5 17 8 18 21
8 9 -8 13 -8 9 -2 -8 14 16 37 27 26 4 -4 6 0 4 8 -2 9 3 14 11 12 9 -2 11 3
7 13 -3 9 -2 13 3 10 5 -3 12 -1 16 5 4 6 12 7 18 3 7 -4 5 2 -3 12 -9 11 -10
16 -2 11 7 -4 15 -1 18 9 4 9 12 14 20 11 8 -3 11 2 9 14 -2 11 1 23 7 26 7 4
8 2 4 -4 -4 -8 -2 -10 8 -6 8 3 13 14 11 25 -2 11 0 17 6 13 6 -3 13 3 16 15
3 11 9 18 14 15 5 -3 9 2 9 11 0 10 5 13 12 9 7 -4 8 -3 4 4 -4 6 2 19 14 29
11 10 20 25 20 35 0 10 7 18 16 18 8 0 13 4 9 10 -3 5 3 18 13 28 10 10 16 24
14 32 -3 7 0 10 7 6 10 -7 16 13 12 38 -1 5 5 6 13 3 19 -7 31 9 15 19 -8 5
-4 13 12 26 13 11 19 17 12 14 -8 -5 -8 0 0 18 7 13 15 22 19 20 5 -3 9 4 9
15 3 38 4 42 17 50 8 5 13 11 13 15 -3 24 0 30 10 16 9 -12 10 -11 6 7 -3 13
2 28 13 38 9 9 16 26 14 40 -1 18 3 25 14 25 15 1 14 3 -3 17 -16 13 -17 15
-2 10 13 -5 17 -1 17 19 0 17 4 23 13 18 7 -5 7 -2 -2 10 -12 15 -12 17 0 14
9 -2 14 5 13 20 -1 14 3 21 10 19 6 -3 12 3 12 13 0 10 -5 16 -11 12 -12 -7
15 29 30 40 6 5 5 8 -3 8 -15 0 -11 21 8 38 13 12 13 13 0 6 -12 -6 -13 -5 -3
7 9 12 10 18 1 27 -8 8 -5 9 13 6 20 -5 21 -4 9 6 -11 9 -12 13 -2 17 6 2 12
9 12 14 0 6 -4 8 -10 4 -5 -3 -3 6 5 21 7 15 11 33 8 42 -4 9 -2 13 4 9 5 -3
10 0 10 8 0 8 -4 15 -9 15 -4 0 -8 4 -8 10 0 5 7 7 16 3 14 -5 15 -3 6 12 -6
12 -7 28 -1 42 5 13 5 23 1 23 -4 0 -2 4 5 8 16 10 26 69 13 77 -14 8 -3 24
24 35 l21 9 -22 0 c-12 1 -25 7 -29 14 -4 6 -4 9 1 5 8 -8 34 20 35 37 0 6 -4
4 -9 -3 -5 -8 -8 1 -7 26 0 22 4 38 9 35 4 -2 4 -9 1 -15 -4 -7 -2 -8 4 -4 9
5 9 13 1 28 -9 16 -8 23 2 29 12 7 12 9 0 9 -9 0 -10 4 -5 13 14 18 11 47 -6
57 -13 8 -13 10 1 10 9 0 16 7 16 15 0 8 -4 15 -8 15 -4 0 -9 7 -13 15 -3 8
-2 14 2 14 19 -3 25 2 12 11 -10 6 -15 29 -15 76 -1 53 -5 69 -21 81 -13 10
-14 14 -4 11 9 -2 15 2 15 7 0 6 -3 9 -7 7 -5 -1 -8 -1 -8 0 -1 2 -3 28 -6 58
-3 30 -10 57 -15 58 -6 2 -4 11 3 20 10 12 10 14 1 8 -9 -5 -13 1 -13 18 0 15
-6 26 -14 26 -9 0 -12 8 -8 26 3 19 1 25 -7 20 -6 -4 -11 -3 -11 3 0 5 5 13
10 16 6 4 3 16 -9 31 -11 14 -18 31 -15 38 3 7 -6 24 -20 37 -14 13 -26 34
-26 47 0 15 -4 21 -12 16 -7 -5 -9 -2 -5 9 3 8 0 18 -8 20 -7 3 -20 19 -28 36
-10 20 -11 29 -4 25 7 -3 4 1 -5 9 -10 8 -15 17 -11 20 3 4 -1 7 -10 7 -9 0
-17 7 -17 16 0 9 -5 12 -12 8 -7 -4 -8 -3 -4 4 10 17 -15 51 -33 44 -10 -4
-13 -1 -8 11 6 16 -3 22 -26 18 -5 -1 -6 3 -2 9 3 5 1 10 -5 10 -6 0 -8 5 -5
10 3 6 -1 10 -10 10 -12 0 -15 5 -11 16 6 15 4 15 -11 3 -9 -8 -14 -9 -10 -3
4 7 0 15 -9 18 -9 3 -12 11 -8 18 5 8 2 9 -9 5 -10 -3 -17 -2 -17 4 0 6 -5 7
-12 3 -6 -4 -8 -3 -4 4 3 6 -3 17 -14 25 -11 7 -18 16 -15 19 3 3 -6 4 -20 2
-19 -2 -23 1 -16 9 7 9 2 12 -16 14 -14 0 -28 5 -32 11 -3 5 -15 12 -26 14
-11 2 -19 9 -18 15 1 5 -9 9 -23 7 -21 -2 -23 0 -13 12 7 8 8 14 3 13 -5 -1
-24 -1 -42 0 -24 1 -31 5 -26 14 5 7 2 7 -10 -2 -9 -8 -16 -10 -15 -5 4 21 -2
28 -11 14 -8 -13 -10 -13 -10 1 0 12 -7 15 -25 11 -14 -2 -31 1 -39 7 -7 6
-54 12 -104 13 -50 1 -89 5 -87 8 2 4 -2 7 -10 7 -8 0 -12 -4 -9 -9 3 -4 0 -8
-5 -8 -6 0 -11 6 -11 13 0 9 -2 9 -9 -1 -5 -9 -20 -12 -40 -9 -22 4 -34 1 -38
-9 -3 -8 -9 -14 -15 -14 -5 0 -6 5 -3 10 3 6 1 10 -4 10 -6 0 -11 -6 -11 -12
0 -9 -3 -9 -8 -3 -9 13 -31 13 -40 0 -4 -6 -22 -10 -40 -10 -21 1 -31 -3 -28
-10 5 -13 -22 -13 -43 0 -10 6 -12 4 -6 -5 6 -10 1 -12 -20 -8 -18 4 -33 0
-45 -12 -15 -15 -18 -16 -28 -1 -9 13 -11 13 -9 1 1 -8 -5 -15 -13 -15 -8 0
-14 -7 -12 -14 1 -7 -2 -10 -8 -6 -6 3 -8 10 -6 14 3 4 -1 8 -9 8 -8 0 -13 -5
-12 -10 1 -5 -13 -11 -30 -13 -18 -1 -33 2 -33 7 0 5 7 9 16 9 8 0 13 4 10 9
-8 12 16 20 48 17 21 -3 24 -1 15 11 -9 11 -8 12 5 7 9 -3 16 -1 16 6 0 6 5 8
12 4 7 -5 9 -2 6 8 -4 8 -1 15 5 15 26 1 42 9 48 23 3 8 10 15 16 15 5 0 21
12 35 27 14 15 28 25 31 21 4 -3 7 -1 7 6 0 7 4 10 9 6 5 -3 13 0 17 6 4 7 3
9 -3 6 -6 -4 -13 0 -16 8 -4 9 -1 12 7 9 7 -3 18 5 25 18 6 13 9 15 7 6 -8
-29 0 -21 30 26 16 25 32 43 36 40 4 -2 5 5 3 16 -2 11 0 18 4 16 5 -3 17 4
27 17 17 19 17 20 1 8 -17 -13 -17 -13 -6 12 6 14 17 25 22 24 6 -1 11 4 12
11 0 8 9 21 20 29 16 13 17 15 3 10 -10 -4 -18 -2 -18 3 0 9 15 14 33 11 5 -1
6 3 2 9 -3 6 -12 8 -18 4 -7 -3 -3 2 7 10 20 16 23 26 28 78 1 15 9 30 16 33
11 4 12 8 2 20 -10 12 -9 15 5 15 14 0 15 3 6 14 -9 11 -8 15 6 21 17 6 17 7
0 20 -12 8 -14 14 -6 17 7 2 13 30 15 68 1 35 -1 58 -5 51 -6 -10 -10 -9 -14
3 -4 9 -1 15 6 13 8 -1 12 12 12 35 1 20 -3 34 -7 32 -5 -3 -5 -10 -2 -16 4
-6 2 -8 -4 -4 -6 3 -9 15 -7 26 4 21 0 26 -10 11z m25 -135 c0 -3 -4 -8 -10
-11 -5 -3 -10 -1 -10 4 0 6 5 11 10 11 6 0 10 -2 10 -4z m-773 -458 c-3 -8 -6
-5 -6 6 -1 11 2 17 5 13 3 -3 4 -12 1 -19z m-663 -246 c3 -5 -1 -9 -9 -9 -8 0
-12 4 -9 9 3 4 7 8 9 8 2 0 6 -4 9 -8z m869 -97 c-3 -9 -8 -14 -10 -11 -3 3
-2 9 2 15 9 16 15 13 8 -4z m1462 -505 c3 -5 1 -10 -4 -10 -6 0 -11 5 -11 10
0 6 2 10 4 10 3 0 8 -4 11 -10z m-3411 -906 c3 -8 2 -12 -4 -9 -6 3 -10 10
-10 16 0 14 7 11 14 -7z m123 -479 c0 -8 -4 -12 -9 -9 -5 3 -6 10 -3 15 9 13
12 11 12 -6z m3223 -129 c0 -3 -4 -8 -10 -11 -5 -3 -10 -1 -10 4 0 6 5 11 10
11 6 0 10 -2 10 -4z m-2435 -864 c-3 -3 -11 0 -18 7 -9 10 -8 11 6 5 10 -3 15
-9 12 -12z m80 -22 c3 -5 1 -10 -4 -10 -6 0 -11 5 -11 10 0 6 2 10 4 10 3 0 8
-4 11 -10z"/>
<path d="M1830 4256 c0 -2 8 -10 18 -17 15 -13 16 -12 3 4 -13 16 -21 21 -21
13z"/>
<path d="M2350 3866 c0 -2 7 -7 16 -10 8 -3 12 -2 9 4 -6 10 -25 14 -25 6z"/>
<path d="M1636 3847 c3 -10 9 -15 12 -12 3 3 0 11 -7 18 -10 9 -11 8 -5 -6z"/>
<path d="M3235 3810 c3 -5 8 -10 11 -10 2 0 4 5 4 10 0 6 -5 10 -11 10 -5 0
-7 -4 -4 -10z"/>
<path d="M1410 3786 c0 -2 8 -10 18 -17 15 -13 16 -12 3 4 -13 16 -21 21 -21
13z"/>
<path d="M2910 3759 c0 -5 5 -7 10 -4 6 3 10 8 10 11 0 2 -4 4 -10 4 -5 0 -10
-5 -10 -11z"/>
<path d="M2135 3721 c-3 -5 -2 -12 3 -15 5 -3 9 1 9 9 0 17 -3 19 -12 6z"/>
<path d="M2707 3717 c-3 -8 1 -14 8 -14 7 0 11 6 8 14 -3 7 -6 13 -8 13 -2 0
-5 -6 -8 -13z"/>
<path d="M1179 3663 c-13 -16 -12 -17 4 -4 9 7 17 15 17 17 0 8 -8 3 -21 -13z"/>
<path d="M670 2839 c0 -5 5 -7 10 -4 6 3 10 8 10 11 0 2 -4 4 -10 4 -5 0 -10
-5 -10 -11z"/>
<path d="M4233 2685 c0 -8 4 -12 9 -9 5 3 6 10 3 15 -9 13 -12 11 -12 -6z"/>
</g>
</svg>
