<?xml version="1.0" standalone="no"?>
<!DOCTYPE svg PUBLIC "-//W3C//DTD SVG 20010904//EN"
 "http://www.w3.org/TR/2001/REC-SVG-20010904/DTD/svg10.dtd">
<svg version="1.0" xmlns="http://www.w3.org/2000/svg"
 width="160.000000pt" height="160.000000pt" viewBox="0 0 160.000000 160.000000"
 preserveAspectRatio="xMidYMid meet">
<metadata>
Created by potrace 1.11, written by Peter Selinger 2001-2013
</metadata>
<g transform="translate(0.000000,160.000000) scale(0.100000,-0.100000)"
fill="#000000" stroke="none">
<path d="M1009 1547 c-98 -36 -214 -176 -221 -264 -1 -18 -3 -33 -4 -33 0 0
-18 33 -39 74 -73 143 -148 203 -177 141 -13 -29 3 -55 33 -55 11 0 19 -4 19
-10 0 -5 7 -10 15 -10 8 0 15 -3 15 -8 0 -4 11 -20 25 -35 14 -15 23 -27 20
-27 -2 0 5 -11 17 -25 12 -14 27 -41 34 -61 l12 -36 -40 6 c-22 3 -58 11 -81
17 -108 30 -262 14 -332 -34 -37 -25 -107 -87 -100 -87 4 0 -5 -15 -18 -32
-34 -46 -76 -156 -85 -226 -27 -193 39 -438 165 -618 49 -71 104 -122 178
-166 46 -27 56 -29 120 -24 39 3 101 16 139 30 87 33 109 32 229 -3 142 -42
187 -38 280 25 39 27 92 74 117 105 75 95 156 273 175 390 4 24 10 53 12 64
11 43 5 193 -11 253 -61 237 -242 373 -451 338 -35 -6 -75 -15 -140 -33 -11
-3 3 10 30 27 106 69 172 183 171 295 -1 36 -4 40 -27 41 -14 1 -50 -8 -80
-19z"/>
</g>
</svg>
