<?xml version="1.0" encoding="UTF-8"?>
<svg width="39px" height="39px" viewBox="0 0 39 39" version="1.1" xmlns="http://www.w3.org/2000/svg" xmlns:xlink="http://www.w3.org/1999/xlink">
    <!-- Generator: Sketch 41.2 (35397) - http://www.bohemiancoding.com/sketch -->
    <title>Wolfram_Alpha_December_2016</title>
    <desc>Created with Sketch.</desc>
    <defs></defs>
    <g id="Group" stroke="none" stroke-width="1" fill="none" fill-rule="evenodd">
        <polyline id="Shape" fill="#F16850" points="37 24.87 29.13 26.55 29.93 34.37 22.56 31.21 18.5 38 14.44 31.21 7.07 34.37 7.87 26.55 0 24.87 5.36 19 0 13.13 7.87 11.45 7.07 3.63 14.44 6.79 18.5 0 22.56 6.79 29.93 3.63 29.13 11.46 37 13.13 31.64 19"></polyline>
        <polyline id="Shape" fill="#FD694F" points="18.5 11.86 14.44 6.79 7.07 3.63 11.46 9.41"></polyline>
        <polyline id="Shape" fill="#FF3413" points="7.87 11.45 0 13.13 5.36 19 11.66 16.71"></polyline>
        <polyline id="Shape" fill="#DC1D23" points="11.46 9.41 7.07 3.63 7.87 11.45 11.66 16.71"></polyline>
        <polyline id="Shape" fill="#FF9281" points="22.56 6.79 18.5 0 14.44 6.79 18.5 11.86"></polyline>
        <polyline id="Shape" fill="#FF8B79" points="31.64 19 37 13.13 29.13 11.45 25.34 16.71"></polyline>
        <polyline id="Shape" fill="#FD694F" points="25.34 16.71 29.13 11.45 29.94 3.63 25.54 9.41"></polyline>
        <polyline id="Shape" fill="#EF5240" points="25.54 9.41 29.94 3.63 22.56 6.79 18.5 11.86"></polyline>
        <polyline id="Shape" fill="#FF482C" points="29.9 22.5 37 24.87 31.64 19 25.34 16.71"></polyline>
        <polyline id="Shape" fill="#EC2101" points="11.66 16.71 5.36 19 0 24.87 7.1 22.5"></polyline>
        <polyline id="Shape" fill="#D21C22" points="18.5 30.59 18.5 38 22.56 31.21 22.73 24.56"></polyline>
        <polyline id="Shape" fill="#C90901" points="29.9 22.5 22.73 24.56 29.13 26.55 37 24.87"></polyline>
        <polyline id="Shape" fill="#EC2101" points="22.56 31.21 29.93 34.37 29.13 26.55 22.73 24.56"></polyline>
        <polyline id="Shape" fill="#B6171E" points="7.1 22.5 0 24.87 7.87 26.54 14.27 24.56"></polyline>
        <polyline id="Shape" fill="#B4151B" points="14.27 24.56 14.44 31.21 18.5 38 18.5 30.59"></polyline>
        <polyline id="Shape" fill="#D21C22" points="7.87 26.54 7.07 34.37 14.44 31.21 14.27 24.56"></polyline>
        <polyline id="Shape" fill="#E63320" points="25.34 16.71 25.54 9.41 18.5 11.86 18.5 18.96"></polyline>
        <polyline id="Shape" fill="#FF4527" points="18.5 11.86 11.46 9.41 11.66 16.71 18.5 18.96"></polyline>
        <polyline id="Shape" fill="#FF9281" points="14.27 24.56 18.5 30.59 22.73 24.56 18.5 18.96"></polyline>
        <polyline id="Shape" fill="#FD684D" points="18.5 18.96 22.73 24.56 29.9 22.5 25.34 16.71"></polyline>
        <polyline id="Shape" fill="#FD745C" points="11.66 16.71 7.1 22.5 14.27 24.56 18.5 18.96"></polyline>
    </g>
</svg>